<?xml version="1.0" standalone="no"?>
<!DOCTYPE svg PUBLIC "-//W3C//DTD SVG 20010904//EN"
 "http://www.w3.org/TR/2001/REC-SVG-20010904/DTD/svg10.dtd">
<svg version="1.0" xmlns="http://www.w3.org/2000/svg"
 width="200.000000pt" height="200.000000pt" viewBox="0 0 200.000000 200.000000"
 preserveAspectRatio="xMidYMid meet">
<metadata>
Created by potrace 1.14, written by Peter Selinger 2001-2017
</metadata>
<g transform="translate(0.000000,200.000000) scale(0.100000,-0.100000)"
fill="#000000" stroke="none">
<path d="M0 1950 c0 -49 1 -50 30 -50 17 0 46 -6 64 -14 l34 -14 -14 34 c-8
18 -14 47 -14 64 0 29 -1 30 -50 30 l-50 0 0 -50z"/>
<path d="M110 1981 c0 -27 21 -82 43 -114 25 -36 16 -45 -20 -20 -32 22 -87
43 -114 43 -18 0 -19 -11 -19 -164 l0 -164 43 -10 c23 -6 52 -14 64 -17 23 -7
23 -7 8 29 -8 19 -15 60 -15 90 0 55 24 136 41 136 4 0 -1 -19 -11 -42 -27
-60 -25 -131 5 -196 15 -32 30 -52 37 -50 7 3 24 24 38 49 42 74 30 186 -27
251 -9 10 -11 18 -4 22 5 4 12 2 16 -4 10 -16 76 -47 117 -54 63 -11 188 31
188 64 0 5 -25 21 -55 36 -48 23 -64 26 -115 21 -34 -3 -75 -14 -95 -25 -23
-14 -32 -16 -29 -7 11 27 89 48 156 42 35 -3 74 -8 87 -13 21 -6 23 -5 16 12
-4 10 -12 38 -18 62 l-10 42 -164 0 c-152 0 -163 -1 -163 -19z"/>
<path d="M460 1972 c0 -37 41 -117 60 -117 19 0 60 80 60 117 0 28 -1 28 -60
28 -59 0 -60 0 -60 -28z"/>
<path d="M594 1963 c-9 -55 -52 -129 -90 -158 -70 -53 -170 -70 -241 -40 -20
8 -37 14 -39 12 -2 -1 3 -21 11 -42 28 -79 13 -170 -40 -239 -29 -38 -103 -81
-157 -90 l-38 -7 0 -699 0 -700 50 0 c50 0 50 0 50 33 0 36 44 137 60 137 14
0 13 -8 -8 -38 -22 -31 -42 -86 -42 -113 0 -18 11 -19 163 -19 l164 0 11 47
c6 27 14 56 17 65 7 17 5 17 -29 3 -68 -29 -214 -10 -230 30 -3 9 8 6 32 -8
54 -32 161 -31 220 2 23 14 41 30 39 35 -2 6 -23 22 -47 35 -75 42 -187 30
-252 -26 -9 -8 -18 -10 -22 -5 -13 22 103 72 168 72 53 0 119 -22 161 -54 36
-28 80 -105 90 -159 l7 -37 699 0 699 0 0 700 0 699 -37 7 c-55 9 -129 52
-158 90 -68 89 -72 221 -10 291 l25 28 -24 -45 c-31 -59 -39 -107 -26 -165 11
-48 44 -105 60 -105 5 0 21 25 36 55 23 48 26 64 21 115 -3 34 -14 75 -25 95
-14 22 -16 32 -7 29 40 -16 59 -162 30 -230 -15 -36 -15 -36 8 -29 12 4 41 12
65 18 l42 10 0 165 0 165 -36 -6 c-20 -3 -55 -16 -77 -27 -34 -18 -38 -19 -26
-4 19 23 71 44 109 44 29 0 30 1 30 50 l0 50 -700 0 -699 0 -7 -37z m528 -400
c55 -30 92 -74 113 -134 27 -76 14 -166 -30 -216 l-25 -28 24 45 c31 59 39
107 26 165 -11 48 -44 105 -60 105 -5 0 -21 -25 -36 -55 -23 -48 -26 -64 -21
-115 3 -34 14 -75 25 -95 14 -22 16 -32 7 -29 -39 15 -59 162 -31 229 8 19 13
35 10 35 -3 0 -28 -7 -56 -16 -49 -17 -97 -14 -175 11 -23 7 -23 7 -8 -29 8
-19 15 -60 15 -90 0 -55 -24 -136 -41 -136 -4 0 1 19 11 43 27 59 25 130 -5
195 -15 32 -30 52 -37 50 -7 -3 -24 -24 -38 -49 -42 -74 -30 -186 27 -251 9
-10 11 -18 4 -22 -5 -4 -12 -2 -16 4 -10 16 -76 47 -117 54 -63 11 -188 -31
-188 -64 0 -5 25 -21 55 -36 48 -23 64 -26 115 -21 34 3 75 14 95 25 23 14 32
16 29 7 -11 -27 -89 -48 -156 -42 -35 3 -74 8 -87 13 -21 6 -23 5 -16 -12 29
-70 29 -140 0 -216 -7 -17 -5 -17 29 -3 68 29 214 10 230 -30 3 -9 -8 -6 -32
8 -54 32 -161 31 -220 -2 -23 -14 -41 -30 -39 -35 2 -6 23 -22 47 -35 75 -42
187 -30 252 26 9 8 18 10 22 5 13 -22 -103 -72 -168 -72 -95 0 -175 47 -221
131 -74 134 -9 303 136 354 53 19 120 19 166 0 20 -8 37 -14 39 -12 2 1 -3 21
-11 42 -27 77 -13 167 37 236 26 35 93 78 141 90 50 12 127 0 179 -28z m-254
-412 c69 -47 165 -52 243 -12 34 18 40 19 28 5 -35 -43 -163 -59 -233 -30
l-34 14 14 -34 c23 -54 18 -150 -11 -211 -13 -29 -29 -53 -35 -53 -14 0 -13 8
8 38 11 15 24 42 30 61 23 65 11 144 -30 203 -30 43 -23 50 20 19z"/>
<path d="M905 1561 c-22 -10 -46 -25 -53 -33 -20 -25 74 -68 148 -68 74 0 168
43 148 68 -23 28 -91 52 -148 52 -32 0 -72 -8 -95 -19z"/>
<path d="M462 1137 c-24 -29 -42 -88 -42 -140 0 -59 35 -142 60 -142 26 0 60
83 60 145 0 38 -7 70 -22 100 -25 48 -39 58 -56 37z"/>
<path d="M0 1480 c0 -59 1 -60 28 -60 32 0 102 31 120 52 11 14 5 19 -40 42
-28 14 -65 26 -80 26 -28 0 -28 -1 -28 -60z"/>
<path d="M1892 1514 c-45 -23 -51 -28 -40 -42 18 -21 88 -52 121 -52 26 0 27
1 27 60 0 59 0 60 -28 60 -15 0 -52 -12 -80 -26z"/>
<path d="M502 137 c-19 -22 -42 -84 -42 -112 0 -24 2 -25 60 -25 59 0 60 0 60
28 0 31 -39 114 -56 119 -6 2 -16 -2 -22 -10z"/>
</g>
</svg>
